<?xml version="1.0" encoding="utf-8" standalone="no"?>
<!DOCTYPE svg PUBLIC "-//W3C//DTD SVG 1.1//EN"
  "http://www.w3.org/Graphics/SVG/1.1/DTD/svg11.dtd">
<svg xmlns:xlink="http://www.w3.org/1999/xlink" width="720pt" height="504pt" viewBox="0 0 720 504" xmlns="http://www.w3.org/2000/svg" version="1.1">
 <metadata>
  <rdf:RDF xmlns:dc="http://purl.org/dc/elements/1.1/" xmlns:cc="http://creativecommons.org/ns#" xmlns:rdf="http://www.w3.org/1999/02/22-rdf-syntax-ns#">
   <cc:Work>
    <dc:type rdf:resource="http://purl.org/dc/dcmitype/StillImage"/>
    <dc:date>2023-05-07T17:40:19.012792</dc:date>
    <dc:format>image/svg+xml</dc:format>
    <dc:creator>
     <cc:Agent>
      <dc:title>Matplotlib v3.7.1, https://matplotlib.org/</dc:title>
     </cc:Agent>
    </dc:creator>
   </cc:Work>
  </rdf:RDF>
 </metadata>
 <defs>
  <style type="text/css">*{stroke-linejoin: round; stroke-linecap: butt}</style>
 </defs>
 <g id="figure_1">
  <g id="patch_1">
   <path d="M 0 504 
L 720 504 
L 720 0 
L 0 0 
z
" style="fill: #ffffff"/>
  </g>
  <g id="axes_1">
   <g id="patch_2">
    <path d="M 90 448.56 
L 648 448.56 
L 648 60.48 
L 90 60.48 
z
" style="fill: #ffffff"/>
   </g>
   <g id="matplotlib.axis_1">
    <g id="xtick_1">
     <g id="line2d_1">
      <defs>
       <path id="m4a5077318c" d="M 0 0 
L 0 3.5 
" style="stroke: #000000; stroke-width: 0.8"/>
      </defs>
      <g>
       <use xlink:href="#m4a5077318c" x="115.363636" y="448.56" style="stroke: #000000; stroke-width: 0.8"/>
      </g>
     </g>
     <g id="text_1">
      <!-- 0 -->
      <g transform="translate(112.182386 463.158437) scale(0.1 -0.1)">
       <defs>
        <path id="DejaVuSans-30" d="M 2034 4250 
Q 1547 4250 1301 3770 
Q 1056 3291 1056 2328 
Q 1056 1369 1301 889 
Q 1547 409 2034 409 
Q 2525 409 2770 889 
Q 3016 1369 3016 2328 
Q 3016 3291 2770 3770 
Q 2525 4250 2034 4250 
z
M 2034 4750 
Q 2819 4750 3233 4129 
Q 3647 3509 3647 2328 
Q 3647 1150 3233 529 
Q 2819 -91 2034 -91 
Q 1250 -91 836 529 
Q 422 1150 422 2328 
Q 422 3509 836 4129 
Q 1250 4750 2034 4750 
z
" transform="scale(0.015625)"/>
       </defs>
       <use xlink:href="#DejaVuSans-30"/>
      </g>
     </g>
    </g>
    <g id="xtick_2">
     <g id="line2d_2">
      <g>
       <use xlink:href="#m4a5077318c" x="179.091366" y="448.56" style="stroke: #000000; stroke-width: 0.8"/>
      </g>
     </g>
     <g id="text_2">
      <!-- 50 -->
      <g transform="translate(172.728866 463.158437) scale(0.1 -0.1)">
       <defs>
        <path id="DejaVuSans-35" d="M 691 4666 
L 3169 4666 
L 3169 4134 
L 1269 4134 
L 1269 2991 
Q 1406 3038 1543 3061 
Q 1681 3084 1819 3084 
Q 2600 3084 3056 2656 
Q 3513 2228 3513 1497 
Q 3513 744 3044 326 
Q 2575 -91 1722 -91 
Q 1428 -91 1123 -41 
Q 819 9 494 109 
L 494 744 
Q 775 591 1075 516 
Q 1375 441 1709 441 
Q 2250 441 2565 725 
Q 2881 1009 2881 1497 
Q 2881 1984 2565 2268 
Q 2250 2553 1709 2553 
Q 1456 2553 1204 2497 
Q 953 2441 691 2322 
L 691 4666 
z
" transform="scale(0.015625)"/>
       </defs>
       <use xlink:href="#DejaVuSans-35"/>
       <use xlink:href="#DejaVuSans-30" x="63.623047"/>
      </g>
     </g>
    </g>
    <g id="xtick_3">
     <g id="line2d_3">
      <g>
       <use xlink:href="#m4a5077318c" x="242.819095" y="448.56" style="stroke: #000000; stroke-width: 0.8"/>
      </g>
     </g>
     <g id="text_3">
      <!-- 100 -->
      <g transform="translate(233.275345 463.158437) scale(0.1 -0.1)">
       <defs>
        <path id="DejaVuSans-31" d="M 794 531 
L 1825 531 
L 1825 4091 
L 703 3866 
L 703 4441 
L 1819 4666 
L 2450 4666 
L 2450 531 
L 3481 531 
L 3481 0 
L 794 0 
L 794 531 
z
" transform="scale(0.015625)"/>
       </defs>
       <use xlink:href="#DejaVuSans-31"/>
       <use xlink:href="#DejaVuSans-30" x="63.623047"/>
       <use xlink:href="#DejaVuSans-30" x="127.246094"/>
      </g>
     </g>
    </g>
    <g id="xtick_4">
     <g id="line2d_4">
      <g>
       <use xlink:href="#m4a5077318c" x="306.546825" y="448.56" style="stroke: #000000; stroke-width: 0.8"/>
      </g>
     </g>
     <g id="text_4">
      <!-- 150 -->
      <g transform="translate(297.003075 463.158437) scale(0.1 -0.1)">
       <use xlink:href="#DejaVuSans-31"/>
       <use xlink:href="#DejaVuSans-35" x="63.623047"/>
       <use xlink:href="#DejaVuSans-30" x="127.246094"/>
      </g>
     </g>
    </g>
    <g id="xtick_5">
     <g id="line2d_5">
      <g>
       <use xlink:href="#m4a5077318c" x="370.274555" y="448.56" style="stroke: #000000; stroke-width: 0.8"/>
      </g>
     </g>
     <g id="text_5">
      <!-- 200 -->
      <g transform="translate(360.730805 463.158437) scale(0.1 -0.1)">
       <defs>
        <path id="DejaVuSans-32" d="M 1228 531 
L 3431 531 
L 3431 0 
L 469 0 
L 469 531 
Q 828 903 1448 1529 
Q 2069 2156 2228 2338 
Q 2531 2678 2651 2914 
Q 2772 3150 2772 3378 
Q 2772 3750 2511 3984 
Q 2250 4219 1831 4219 
Q 1534 4219 1204 4116 
Q 875 4013 500 3803 
L 500 4441 
Q 881 4594 1212 4672 
Q 1544 4750 1819 4750 
Q 2544 4750 2975 4387 
Q 3406 4025 3406 3419 
Q 3406 3131 3298 2873 
Q 3191 2616 2906 2266 
Q 2828 2175 2409 1742 
Q 1991 1309 1228 531 
z
" transform="scale(0.015625)"/>
       </defs>
       <use xlink:href="#DejaVuSans-32"/>
       <use xlink:href="#DejaVuSans-30" x="63.623047"/>
       <use xlink:href="#DejaVuSans-30" x="127.246094"/>
      </g>
     </g>
    </g>
    <g id="xtick_6">
     <g id="line2d_6">
      <g>
       <use xlink:href="#m4a5077318c" x="434.002284" y="448.56" style="stroke: #000000; stroke-width: 0.8"/>
      </g>
     </g>
     <g id="text_6">
      <!-- 250 -->
      <g transform="translate(424.458534 463.158437) scale(0.1 -0.1)">
       <use xlink:href="#DejaVuSans-32"/>
       <use xlink:href="#DejaVuSans-35" x="63.623047"/>
       <use xlink:href="#DejaVuSans-30" x="127.246094"/>
      </g>
     </g>
    </g>
    <g id="xtick_7">
     <g id="line2d_7">
      <g>
       <use xlink:href="#m4a5077318c" x="497.730014" y="448.56" style="stroke: #000000; stroke-width: 0.8"/>
      </g>
     </g>
     <g id="text_7">
      <!-- 300 -->
      <g transform="translate(488.186264 463.158437) scale(0.1 -0.1)">
       <defs>
        <path id="DejaVuSans-33" d="M 2597 2516 
Q 3050 2419 3304 2112 
Q 3559 1806 3559 1356 
Q 3559 666 3084 287 
Q 2609 -91 1734 -91 
Q 1441 -91 1130 -33 
Q 819 25 488 141 
L 488 750 
Q 750 597 1062 519 
Q 1375 441 1716 441 
Q 2309 441 2620 675 
Q 2931 909 2931 1356 
Q 2931 1769 2642 2001 
Q 2353 2234 1838 2234 
L 1294 2234 
L 1294 2753 
L 1863 2753 
Q 2328 2753 2575 2939 
Q 2822 3125 2822 3475 
Q 2822 3834 2567 4026 
Q 2313 4219 1838 4219 
Q 1578 4219 1281 4162 
Q 984 4106 628 3988 
L 628 4550 
Q 988 4650 1302 4700 
Q 1616 4750 1894 4750 
Q 2613 4750 3031 4423 
Q 3450 4097 3450 3541 
Q 3450 3153 3228 2886 
Q 3006 2619 2597 2516 
z
" transform="scale(0.015625)"/>
       </defs>
       <use xlink:href="#DejaVuSans-33"/>
       <use xlink:href="#DejaVuSans-30" x="63.623047"/>
       <use xlink:href="#DejaVuSans-30" x="127.246094"/>
      </g>
     </g>
    </g>
    <g id="xtick_8">
     <g id="line2d_8">
      <g>
       <use xlink:href="#m4a5077318c" x="561.457743" y="448.56" style="stroke: #000000; stroke-width: 0.8"/>
      </g>
     </g>
     <g id="text_8">
      <!-- 350 -->
      <g transform="translate(551.913993 463.158437) scale(0.1 -0.1)">
       <use xlink:href="#DejaVuSans-33"/>
       <use xlink:href="#DejaVuSans-35" x="63.623047"/>
       <use xlink:href="#DejaVuSans-30" x="127.246094"/>
      </g>
     </g>
    </g>
    <g id="xtick_9">
     <g id="line2d_9">
      <g>
       <use xlink:href="#m4a5077318c" x="625.185473" y="448.56" style="stroke: #000000; stroke-width: 0.8"/>
      </g>
     </g>
     <g id="text_9">
      <!-- 400 -->
      <g transform="translate(615.641723 463.158437) scale(0.1 -0.1)">
       <defs>
        <path id="DejaVuSans-34" d="M 2419 4116 
L 825 1625 
L 2419 1625 
L 2419 4116 
z
M 2253 4666 
L 3047 4666 
L 3047 1625 
L 3713 1625 
L 3713 1100 
L 3047 1100 
L 3047 0 
L 2419 0 
L 2419 1100 
L 313 1100 
L 313 1709 
L 2253 4666 
z
" transform="scale(0.015625)"/>
       </defs>
       <use xlink:href="#DejaVuSans-34"/>
       <use xlink:href="#DejaVuSans-30" x="63.623047"/>
       <use xlink:href="#DejaVuSans-30" x="127.246094"/>
      </g>
     </g>
    </g>
    <g id="text_10">
     <!-- Number of trees -->
     <g transform="translate(328.255469 476.836563) scale(0.1 -0.1)">
      <defs>
       <path id="DejaVuSans-4e" d="M 628 4666 
L 1478 4666 
L 3547 763 
L 3547 4666 
L 4159 4666 
L 4159 0 
L 3309 0 
L 1241 3903 
L 1241 0 
L 628 0 
L 628 4666 
z
" transform="scale(0.015625)"/>
       <path id="DejaVuSans-75" d="M 544 1381 
L 544 3500 
L 1119 3500 
L 1119 1403 
Q 1119 906 1312 657 
Q 1506 409 1894 409 
Q 2359 409 2629 706 
Q 2900 1003 2900 1516 
L 2900 3500 
L 3475 3500 
L 3475 0 
L 2900 0 
L 2900 538 
Q 2691 219 2414 64 
Q 2138 -91 1772 -91 
Q 1169 -91 856 284 
Q 544 659 544 1381 
z
M 1991 3584 
L 1991 3584 
z
" transform="scale(0.015625)"/>
       <path id="DejaVuSans-6d" d="M 3328 2828 
Q 3544 3216 3844 3400 
Q 4144 3584 4550 3584 
Q 5097 3584 5394 3201 
Q 5691 2819 5691 2113 
L 5691 0 
L 5113 0 
L 5113 2094 
Q 5113 2597 4934 2840 
Q 4756 3084 4391 3084 
Q 3944 3084 3684 2787 
Q 3425 2491 3425 1978 
L 3425 0 
L 2847 0 
L 2847 2094 
Q 2847 2600 2669 2842 
Q 2491 3084 2119 3084 
Q 1678 3084 1418 2786 
Q 1159 2488 1159 1978 
L 1159 0 
L 581 0 
L 581 3500 
L 1159 3500 
L 1159 2956 
Q 1356 3278 1631 3431 
Q 1906 3584 2284 3584 
Q 2666 3584 2933 3390 
Q 3200 3197 3328 2828 
z
" transform="scale(0.015625)"/>
       <path id="DejaVuSans-62" d="M 3116 1747 
Q 3116 2381 2855 2742 
Q 2594 3103 2138 3103 
Q 1681 3103 1420 2742 
Q 1159 2381 1159 1747 
Q 1159 1113 1420 752 
Q 1681 391 2138 391 
Q 2594 391 2855 752 
Q 3116 1113 3116 1747 
z
M 1159 2969 
Q 1341 3281 1617 3432 
Q 1894 3584 2278 3584 
Q 2916 3584 3314 3078 
Q 3713 2572 3713 1747 
Q 3713 922 3314 415 
Q 2916 -91 2278 -91 
Q 1894 -91 1617 61 
Q 1341 213 1159 525 
L 1159 0 
L 581 0 
L 581 4863 
L 1159 4863 
L 1159 2969 
z
" transform="scale(0.015625)"/>
       <path id="DejaVuSans-65" d="M 3597 1894 
L 3597 1613 
L 953 1613 
Q 991 1019 1311 708 
Q 1631 397 2203 397 
Q 2534 397 2845 478 
Q 3156 559 3463 722 
L 3463 178 
Q 3153 47 2828 -22 
Q 2503 -91 2169 -91 
Q 1331 -91 842 396 
Q 353 884 353 1716 
Q 353 2575 817 3079 
Q 1281 3584 2069 3584 
Q 2775 3584 3186 3129 
Q 3597 2675 3597 1894 
z
M 3022 2063 
Q 3016 2534 2758 2815 
Q 2500 3097 2075 3097 
Q 1594 3097 1305 2825 
Q 1016 2553 972 2059 
L 3022 2063 
z
" transform="scale(0.015625)"/>
       <path id="DejaVuSans-72" d="M 2631 2963 
Q 2534 3019 2420 3045 
Q 2306 3072 2169 3072 
Q 1681 3072 1420 2755 
Q 1159 2438 1159 1844 
L 1159 0 
L 581 0 
L 581 3500 
L 1159 3500 
L 1159 2956 
Q 1341 3275 1631 3429 
Q 1922 3584 2338 3584 
Q 2397 3584 2469 3576 
Q 2541 3569 2628 3553 
L 2631 2963 
z
" transform="scale(0.015625)"/>
       <path id="DejaVuSans-20" transform="scale(0.015625)"/>
       <path id="DejaVuSans-6f" d="M 1959 3097 
Q 1497 3097 1228 2736 
Q 959 2375 959 1747 
Q 959 1119 1226 758 
Q 1494 397 1959 397 
Q 2419 397 2687 759 
Q 2956 1122 2956 1747 
Q 2956 2369 2687 2733 
Q 2419 3097 1959 3097 
z
M 1959 3584 
Q 2709 3584 3137 3096 
Q 3566 2609 3566 1747 
Q 3566 888 3137 398 
Q 2709 -91 1959 -91 
Q 1206 -91 779 398 
Q 353 888 353 1747 
Q 353 2609 779 3096 
Q 1206 3584 1959 3584 
z
" transform="scale(0.015625)"/>
       <path id="DejaVuSans-66" d="M 2375 4863 
L 2375 4384 
L 1825 4384 
Q 1516 4384 1395 4259 
Q 1275 4134 1275 3809 
L 1275 3500 
L 2222 3500 
L 2222 3053 
L 1275 3053 
L 1275 0 
L 697 0 
L 697 3053 
L 147 3053 
L 147 3500 
L 697 3500 
L 697 3744 
Q 697 4328 969 4595 
Q 1241 4863 1831 4863 
L 2375 4863 
z
" transform="scale(0.015625)"/>
       <path id="DejaVuSans-74" d="M 1172 4494 
L 1172 3500 
L 2356 3500 
L 2356 3053 
L 1172 3053 
L 1172 1153 
Q 1172 725 1289 603 
Q 1406 481 1766 481 
L 2356 481 
L 2356 0 
L 1766 0 
Q 1100 0 847 248 
Q 594 497 594 1153 
L 594 3053 
L 172 3053 
L 172 3500 
L 594 3500 
L 594 4494 
L 1172 4494 
z
" transform="scale(0.015625)"/>
       <path id="DejaVuSans-73" d="M 2834 3397 
L 2834 2853 
Q 2591 2978 2328 3040 
Q 2066 3103 1784 3103 
Q 1356 3103 1142 2972 
Q 928 2841 928 2578 
Q 928 2378 1081 2264 
Q 1234 2150 1697 2047 
L 1894 2003 
Q 2506 1872 2764 1633 
Q 3022 1394 3022 966 
Q 3022 478 2636 193 
Q 2250 -91 1575 -91 
Q 1294 -91 989 -36 
Q 684 19 347 128 
L 347 722 
Q 666 556 975 473 
Q 1284 391 1588 391 
Q 1994 391 2212 530 
Q 2431 669 2431 922 
Q 2431 1156 2273 1281 
Q 2116 1406 1581 1522 
L 1381 1569 
Q 847 1681 609 1914 
Q 372 2147 372 2553 
Q 372 3047 722 3315 
Q 1072 3584 1716 3584 
Q 2034 3584 2315 3537 
Q 2597 3491 2834 3397 
z
" transform="scale(0.015625)"/>
      </defs>
      <use xlink:href="#DejaVuSans-4e"/>
      <use xlink:href="#DejaVuSans-75" x="74.804688"/>
      <use xlink:href="#DejaVuSans-6d" x="138.183594"/>
      <use xlink:href="#DejaVuSans-62" x="235.595703"/>
      <use xlink:href="#DejaVuSans-65" x="299.072266"/>
      <use xlink:href="#DejaVuSans-72" x="360.595703"/>
      <use xlink:href="#DejaVuSans-20" x="401.708984"/>
      <use xlink:href="#DejaVuSans-6f" x="433.496094"/>
      <use xlink:href="#DejaVuSans-66" x="494.677734"/>
      <use xlink:href="#DejaVuSans-20" x="529.882812"/>
      <use xlink:href="#DejaVuSans-74" x="561.669922"/>
      <use xlink:href="#DejaVuSans-72" x="600.878906"/>
      <use xlink:href="#DejaVuSans-65" x="639.742188"/>
      <use xlink:href="#DejaVuSans-65" x="701.265625"/>
      <use xlink:href="#DejaVuSans-73" x="762.789062"/>
     </g>
    </g>
   </g>
   <g id="matplotlib.axis_2">
    <g id="ytick_1">
     <g id="line2d_10">
      <defs>
       <path id="m03959feba0" d="M 0 0 
L -3.5 0 
" style="stroke: #000000; stroke-width: 0.8"/>
      </defs>
      <g>
       <use xlink:href="#m03959feba0" x="90" y="431.767756" style="stroke: #000000; stroke-width: 0.8"/>
      </g>
     </g>
     <g id="text_11">
      <!-- 0.62 -->
      <g transform="translate(60.734375 435.566975) scale(0.1 -0.1)">
       <defs>
        <path id="DejaVuSans-2e" d="M 684 794 
L 1344 794 
L 1344 0 
L 684 0 
L 684 794 
z
" transform="scale(0.015625)"/>
        <path id="DejaVuSans-36" d="M 2113 2584 
Q 1688 2584 1439 2293 
Q 1191 2003 1191 1497 
Q 1191 994 1439 701 
Q 1688 409 2113 409 
Q 2538 409 2786 701 
Q 3034 994 3034 1497 
Q 3034 2003 2786 2293 
Q 2538 2584 2113 2584 
z
M 3366 4563 
L 3366 3988 
Q 3128 4100 2886 4159 
Q 2644 4219 2406 4219 
Q 1781 4219 1451 3797 
Q 1122 3375 1075 2522 
Q 1259 2794 1537 2939 
Q 1816 3084 2150 3084 
Q 2853 3084 3261 2657 
Q 3669 2231 3669 1497 
Q 3669 778 3244 343 
Q 2819 -91 2113 -91 
Q 1303 -91 875 529 
Q 447 1150 447 2328 
Q 447 3434 972 4092 
Q 1497 4750 2381 4750 
Q 2619 4750 2861 4703 
Q 3103 4656 3366 4563 
z
" transform="scale(0.015625)"/>
       </defs>
       <use xlink:href="#DejaVuSans-30"/>
       <use xlink:href="#DejaVuSans-2e" x="63.623047"/>
       <use xlink:href="#DejaVuSans-36" x="95.410156"/>
       <use xlink:href="#DejaVuSans-32" x="159.033203"/>
      </g>
     </g>
    </g>
    <g id="ytick_2">
     <g id="line2d_11">
      <g>
       <use xlink:href="#m03959feba0" x="90" y="382.595667" style="stroke: #000000; stroke-width: 0.8"/>
      </g>
     </g>
     <g id="text_12">
      <!-- 0.63 -->
      <g transform="translate(60.734375 386.394886) scale(0.1 -0.1)">
       <use xlink:href="#DejaVuSans-30"/>
       <use xlink:href="#DejaVuSans-2e" x="63.623047"/>
       <use xlink:href="#DejaVuSans-36" x="95.410156"/>
       <use xlink:href="#DejaVuSans-33" x="159.033203"/>
      </g>
     </g>
    </g>
    <g id="ytick_3">
     <g id="line2d_12">
      <g>
       <use xlink:href="#m03959feba0" x="90" y="333.423579" style="stroke: #000000; stroke-width: 0.8"/>
      </g>
     </g>
     <g id="text_13">
      <!-- 0.64 -->
      <g transform="translate(60.734375 337.222798) scale(0.1 -0.1)">
       <use xlink:href="#DejaVuSans-30"/>
       <use xlink:href="#DejaVuSans-2e" x="63.623047"/>
       <use xlink:href="#DejaVuSans-36" x="95.410156"/>
       <use xlink:href="#DejaVuSans-34" x="159.033203"/>
      </g>
     </g>
    </g>
    <g id="ytick_4">
     <g id="line2d_13">
      <g>
       <use xlink:href="#m03959feba0" x="90" y="284.251491" style="stroke: #000000; stroke-width: 0.8"/>
      </g>
     </g>
     <g id="text_14">
      <!-- 0.65 -->
      <g transform="translate(60.734375 288.05071) scale(0.1 -0.1)">
       <use xlink:href="#DejaVuSans-30"/>
       <use xlink:href="#DejaVuSans-2e" x="63.623047"/>
       <use xlink:href="#DejaVuSans-36" x="95.410156"/>
       <use xlink:href="#DejaVuSans-35" x="159.033203"/>
      </g>
     </g>
    </g>
    <g id="ytick_5">
     <g id="line2d_14">
      <g>
       <use xlink:href="#m03959feba0" x="90" y="235.079402" style="stroke: #000000; stroke-width: 0.8"/>
      </g>
     </g>
     <g id="text_15">
      <!-- 0.66 -->
      <g transform="translate(60.734375 238.878621) scale(0.1 -0.1)">
       <use xlink:href="#DejaVuSans-30"/>
       <use xlink:href="#DejaVuSans-2e" x="63.623047"/>
       <use xlink:href="#DejaVuSans-36" x="95.410156"/>
       <use xlink:href="#DejaVuSans-36" x="159.033203"/>
      </g>
     </g>
    </g>
    <g id="ytick_6">
     <g id="line2d_15">
      <g>
       <use xlink:href="#m03959feba0" x="90" y="185.907314" style="stroke: #000000; stroke-width: 0.8"/>
      </g>
     </g>
     <g id="text_16">
      <!-- 0.67 -->
      <g transform="translate(60.734375 189.706533) scale(0.1 -0.1)">
       <defs>
        <path id="DejaVuSans-37" d="M 525 4666 
L 3525 4666 
L 3525 4397 
L 1831 0 
L 1172 0 
L 2766 4134 
L 525 4134 
L 525 4666 
z
" transform="scale(0.015625)"/>
       </defs>
       <use xlink:href="#DejaVuSans-30"/>
       <use xlink:href="#DejaVuSans-2e" x="63.623047"/>
       <use xlink:href="#DejaVuSans-36" x="95.410156"/>
       <use xlink:href="#DejaVuSans-37" x="159.033203"/>
      </g>
     </g>
    </g>
    <g id="ytick_7">
     <g id="line2d_16">
      <g>
       <use xlink:href="#m03959feba0" x="90" y="136.735226" style="stroke: #000000; stroke-width: 0.8"/>
      </g>
     </g>
     <g id="text_17">
      <!-- 0.68 -->
      <g transform="translate(60.734375 140.534445) scale(0.1 -0.1)">
       <defs>
        <path id="DejaVuSans-38" d="M 2034 2216 
Q 1584 2216 1326 1975 
Q 1069 1734 1069 1313 
Q 1069 891 1326 650 
Q 1584 409 2034 409 
Q 2484 409 2743 651 
Q 3003 894 3003 1313 
Q 3003 1734 2745 1975 
Q 2488 2216 2034 2216 
z
M 1403 2484 
Q 997 2584 770 2862 
Q 544 3141 544 3541 
Q 544 4100 942 4425 
Q 1341 4750 2034 4750 
Q 2731 4750 3128 4425 
Q 3525 4100 3525 3541 
Q 3525 3141 3298 2862 
Q 3072 2584 2669 2484 
Q 3125 2378 3379 2068 
Q 3634 1759 3634 1313 
Q 3634 634 3220 271 
Q 2806 -91 2034 -91 
Q 1263 -91 848 271 
Q 434 634 434 1313 
Q 434 1759 690 2068 
Q 947 2378 1403 2484 
z
M 1172 3481 
Q 1172 3119 1398 2916 
Q 1625 2713 2034 2713 
Q 2441 2713 2670 2916 
Q 2900 3119 2900 3481 
Q 2900 3844 2670 4047 
Q 2441 4250 2034 4250 
Q 1625 4250 1398 4047 
Q 1172 3844 1172 3481 
z
" transform="scale(0.015625)"/>
       </defs>
       <use xlink:href="#DejaVuSans-30"/>
       <use xlink:href="#DejaVuSans-2e" x="63.623047"/>
       <use xlink:href="#DejaVuSans-36" x="95.410156"/>
       <use xlink:href="#DejaVuSans-38" x="159.033203"/>
      </g>
     </g>
    </g>
    <g id="ytick_8">
     <g id="line2d_17">
      <g>
       <use xlink:href="#m03959feba0" x="90" y="87.563137" style="stroke: #000000; stroke-width: 0.8"/>
      </g>
     </g>
     <g id="text_18">
      <!-- 0.69 -->
      <g transform="translate(60.734375 91.362356) scale(0.1 -0.1)">
       <defs>
        <path id="DejaVuSans-39" d="M 703 97 
L 703 672 
Q 941 559 1184 500 
Q 1428 441 1663 441 
Q 2288 441 2617 861 
Q 2947 1281 2994 2138 
Q 2813 1869 2534 1725 
Q 2256 1581 1919 1581 
Q 1219 1581 811 2004 
Q 403 2428 403 3163 
Q 403 3881 828 4315 
Q 1253 4750 1959 4750 
Q 2769 4750 3195 4129 
Q 3622 3509 3622 2328 
Q 3622 1225 3098 567 
Q 2575 -91 1691 -91 
Q 1453 -91 1209 -44 
Q 966 3 703 97 
z
M 1959 2075 
Q 2384 2075 2632 2365 
Q 2881 2656 2881 3163 
Q 2881 3666 2632 3958 
Q 2384 4250 1959 4250 
Q 1534 4250 1286 3958 
Q 1038 3666 1038 3163 
Q 1038 2656 1286 2365 
Q 1534 2075 1959 2075 
z
" transform="scale(0.015625)"/>
       </defs>
       <use xlink:href="#DejaVuSans-30"/>
       <use xlink:href="#DejaVuSans-2e" x="63.623047"/>
       <use xlink:href="#DejaVuSans-36" x="95.410156"/>
       <use xlink:href="#DejaVuSans-39" x="159.033203"/>
      </g>
     </g>
    </g>
    <g id="text_19">
     <!-- Loss -->
     <g transform="translate(54.654688 265.487188) rotate(-90) scale(0.1 -0.1)">
      <defs>
       <path id="DejaVuSans-4c" d="M 628 4666 
L 1259 4666 
L 1259 531 
L 3531 531 
L 3531 0 
L 628 0 
L 628 4666 
z
" transform="scale(0.015625)"/>
      </defs>
      <use xlink:href="#DejaVuSans-4c"/>
      <use xlink:href="#DejaVuSans-6f" x="53.962891"/>
      <use xlink:href="#DejaVuSans-73" x="115.144531"/>
      <use xlink:href="#DejaVuSans-73" x="167.244141"/>
     </g>
    </g>
   </g>
   <g id="line2d_18">
    <path d="M 115.363636 78.3099 
L 116.638191 85.164992 
L 117.912746 86.240004 
L 119.1873 93.892291 
L 120.461855 102.7299 
L 121.736409 107.710424 
L 123.010964 114.531998 
L 124.285519 120.402543 
L 125.560073 121.127411 
L 126.834628 127.159342 
L 128.109182 134.25549 
L 130.658291 140.693871 
L 131.932846 146.227176 
L 133.207401 146.396746 
L 134.481955 152.576752 
L 135.75651 154.788495 
L 138.305619 165.587788 
L 139.580174 169.550844 
L 140.854728 170.034202 
L 142.129283 175.347881 
L 143.403837 179.314254 
L 144.678392 183.932563 
L 145.952947 188.111737 
L 147.227501 188.247977 
L 148.502056 193.06962 
L 149.77661 193.507234 
L 154.874829 210.574846 
L 156.149383 213.699156 
L 157.423938 214.180246 
L 158.698492 217.456969 
L 159.973047 221.046952 
L 162.522156 221.715285 
L 165.071265 228.480965 
L 166.34582 228.964904 
L 168.894929 235.509468 
L 170.169484 236.753452 
L 172.718593 242.10851 
L 173.993148 242.308762 
L 176.542257 247.752637 
L 177.816811 251.562138 
L 179.091366 253.670646 
L 181.640475 259.506787 
L 184.189584 265.68285 
L 185.464139 267.706078 
L 188.013248 272.788707 
L 189.287803 275.127776 
L 190.562357 276.641933 
L 193.111466 281.077307 
L 194.386021 282.656792 
L 195.660576 285.034896 
L 196.93513 286.921139 
L 198.209685 286.98501 
L 199.484239 289.154199 
L 200.758794 291.085953 
L 203.307903 295.25639 
L 204.582458 295.658703 
L 205.857012 297.84899 
L 207.131567 299.739118 
L 208.406122 301.268926 
L 209.680676 302.007285 
L 210.955231 302.509961 
L 212.229785 304.406547 
L 214.778894 305.021795 
L 216.053449 305.663974 
L 217.328004 307.196146 
L 218.602558 307.481409 
L 223.700777 314.862 
L 224.975331 316.412166 
L 226.249886 318.486892 
L 227.52444 320.289457 
L 231.348104 324.429184 
L 232.622659 324.74319 
L 233.897213 325.926628 
L 235.171768 326.675914 
L 236.446323 327.982183 
L 237.720877 329.513576 
L 238.995432 329.894773 
L 240.269986 330.950918 
L 241.544541 331.72462 
L 242.819095 333.413399 
L 244.09365 334.360931 
L 245.368205 334.653983 
L 246.642759 336.067927 
L 247.917314 336.097575 
L 249.191868 336.386804 
L 251.740978 338.865097 
L 254.290087 340.344115 
L 255.564641 341.730542 
L 256.839196 341.927158 
L 258.113751 342.84343 
L 259.388305 344.129895 
L 260.66286 344.782198 
L 261.937414 346.013506 
L 263.211969 346.417545 
L 264.486524 346.611727 
L 267.035633 348.671705 
L 268.310187 348.793066 
L 269.584742 349.226716 
L 270.859296 349.350488 
L 273.408406 351.949667 
L 275.957515 352.418975 
L 277.232069 353.324987 
L 278.506624 353.972081 
L 279.781179 354.228501 
L 281.055733 355.275715 
L 282.330288 356.710843 
L 284.879397 358.021036 
L 286.153952 358.182539 
L 287.428506 359.381902 
L 288.703061 360.015845 
L 289.977615 361.27517 
L 291.25217 361.280064 
L 292.526725 362.061243 
L 293.801279 362.659541 
L 295.075834 362.896885 
L 296.350388 363.815244 
L 297.624943 365.111717 
L 300.174052 366.663437 
L 301.448607 367.354789 
L 302.723161 368.235227 
L 305.27227 368.838325 
L 306.546825 369.513461 
L 307.82138 369.763801 
L 310.370489 371.453284 
L 311.645043 371.834709 
L 312.919598 371.975146 
L 314.194153 372.273881 
L 316.743262 373.361613 
L 318.017816 374.404573 
L 319.292371 374.4204 
L 321.84148 375.523764 
L 323.116035 376.305801 
L 325.665144 376.490558 
L 326.939698 377.038262 
L 329.488808 378.737079 
L 330.763362 378.888066 
L 332.037917 379.439522 
L 333.312471 379.656893 
L 335.861581 380.888893 
L 337.136135 381.722126 
L 338.41069 382.290785 
L 339.685244 382.729588 
L 340.959799 382.940731 
L 342.234354 383.492628 
L 343.508908 383.80781 
L 344.783463 383.793198 
L 346.058017 384.382939 
L 347.332572 385.149898 
L 348.607127 385.472654 
L 349.881681 385.93133 
L 352.43079 387.136332 
L 353.705345 387.602831 
L 354.979899 388.312822 
L 356.254454 388.590297 
L 357.529009 389.07102 
L 358.803563 389.951332 
L 360.078118 390.356841 
L 361.352672 390.413614 
L 363.901782 391.354013 
L 366.450891 391.77389 
L 369 392.773562 
L 371.549109 393.230706 
L 372.823664 393.778603 
L 375.372773 394.572707 
L 380.470991 396.217346 
L 381.745546 396.55199 
L 383.020101 396.572887 
L 384.294655 397.06222 
L 385.56921 397.217127 
L 386.843764 397.658338 
L 388.118319 397.867361 
L 389.392873 397.929462 
L 390.667428 398.370269 
L 393.216537 399.386297 
L 394.491092 399.509552 
L 395.765646 399.923312 
L 397.040201 400.06528 
L 399.58931 400.934339 
L 402.138419 401.496238 
L 403.412974 401.934005 
L 404.687529 401.984295 
L 408.511192 402.835061 
L 411.060302 403.432541 
L 413.609411 403.923208 
L 417.433074 404.83876 
L 418.707629 405.003536 
L 419.982184 405.598755 
L 421.256738 406.020987 
L 422.531293 406.072133 
L 423.805847 406.430968 
L 425.080402 406.58765 
L 426.354957 407.008356 
L 427.629511 407.098686 
L 428.904066 407.534472 
L 430.17862 407.568077 
L 431.453175 407.798068 
L 432.72773 408.392662 
L 436.551393 409.405153 
L 439.100503 409.577047 
L 440.375057 409.686132 
L 442.924166 410.230371 
L 445.473275 410.731893 
L 446.74783 410.845892 
L 450.571494 411.581244 
L 451.846048 411.63998 
L 454.395158 412.061094 
L 455.669712 412.182332 
L 456.944267 412.441466 
L 458.218821 412.572974 
L 460.767931 413.194827 
L 468.415258 414.295829 
L 472.238922 414.90888 
L 474.788031 415.325788 
L 476.062586 415.612498 
L 482.435359 416.49151 
L 483.709913 416.726149 
L 484.984468 416.820059 
L 488.808132 417.584004 
L 495.180905 418.51555 
L 496.455459 418.498517 
L 501.553677 419.239587 
L 504.102787 419.524676 
L 505.377341 419.605065 
L 506.651896 419.477301 
L 509.201005 419.7614 
L 511.750114 419.879752 
L 515.573778 420.218188 
L 516.848333 420.465108 
L 519.397442 420.502789 
L 520.671996 420.685013 
L 521.946551 421.044925 
L 525.770215 421.52177 
L 534.692097 423.06391 
L 537.241206 423.288189 
L 542.339424 424.085235 
L 544.888534 424.108056 
L 546.163088 424.226037 
L 549.986752 424.810053 
L 552.535861 425.08409 
L 553.810416 425.252079 
L 556.359525 425.436121 
L 558.908634 425.665913 
L 560.183189 425.802856 
L 561.457743 425.806337 
L 562.732298 426.121997 
L 564.006852 426.227398 
L 565.281407 426.18854 
L 571.65418 426.868848 
L 578.026953 427.281181 
L 579.301508 427.235065 
L 581.850617 427.419327 
L 585.67428 427.887043 
L 600.968936 428.771919 
L 608.616263 429.579541 
L 616.263591 430.104919 
L 620.087254 430.588067 
L 622.636364 430.92 
L 622.636364 430.92 
" clip-path="url(#p48357a48c4)" style="fill: none; stroke: #1f77b4; stroke-width: 1.5; stroke-linecap: square"/>
   </g>
   <g id="line2d_19">
    <path d="M 115.363636 78.12 
L 116.638191 84.954441 
L 117.912746 86.043264 
L 120.461855 99.753872 
L 121.736409 104.558227 
L 123.010964 111.675037 
L 124.285519 117.951881 
L 125.560073 118.954643 
L 128.109182 131.550766 
L 129.383737 135.08331 
L 130.658291 138.095346 
L 131.932846 144.01964 
L 133.207401 144.030019 
L 134.481955 149.106347 
L 135.75651 151.271793 
L 137.031064 155.497012 
L 138.305619 160.870447 
L 139.580174 165.076004 
L 140.854728 165.75313 
L 142.129283 169.562018 
L 143.403837 174.274989 
L 145.952947 180.978731 
L 147.227501 181.191833 
L 148.502056 186.321129 
L 149.77661 186.965026 
L 151.051165 191.299843 
L 152.32572 195.045971 
L 153.600274 198.416306 
L 154.874829 203.153089 
L 156.149383 205.5359 
L 157.423938 206.235249 
L 158.698492 208.747871 
L 159.973047 212.530424 
L 162.522156 213.005482 
L 163.796711 216.730669 
L 165.071265 219.79708 
L 166.34582 220.866289 
L 168.894929 226.287953 
L 170.169484 227.958001 
L 172.718593 231.729682 
L 173.993148 231.752056 
L 175.267702 234.291331 
L 176.542257 236.485691 
L 177.816811 238.274469 
L 179.091366 240.268522 
L 180.365921 242.495968 
L 181.640475 245.545736 
L 184.189584 252.337692 
L 185.464139 254.047296 
L 186.738693 256.598768 
L 189.287803 262.328938 
L 191.836912 265.686087 
L 194.386021 269.127842 
L 195.660576 270.139522 
L 196.93513 270.89877 
L 198.209685 270.333436 
L 200.758794 274.695214 
L 203.307903 277.843254 
L 204.582458 277.866677 
L 205.857012 280.533973 
L 207.131567 282.813609 
L 208.406122 284.522777 
L 209.680676 285.634211 
L 210.955231 286.235311 
L 212.229785 287.715595 
L 214.778894 288.74673 
L 216.053449 289.078683 
L 217.328004 289.852525 
L 218.602558 289.982413 
L 221.151667 293.844001 
L 223.700777 296.191227 
L 224.975331 297.025456 
L 226.249886 300.091552 
L 227.52444 302.471209 
L 230.07355 306.04111 
L 231.348104 307.52524 
L 233.897213 308.764727 
L 235.171768 309.084347 
L 236.446323 309.947297 
L 237.720877 312.003447 
L 238.995432 312.059825 
L 240.269986 313.130247 
L 241.544541 313.904025 
L 242.819095 314.825356 
L 244.09365 315.91781 
L 245.368205 316.215101 
L 246.642759 317.986096 
L 247.917314 317.27488 
L 249.191868 317.257856 
L 250.466423 318.25486 
L 251.740978 318.817556 
L 254.290087 319.376137 
L 255.564641 320.355548 
L 256.839196 320.723207 
L 258.113751 321.962011 
L 259.388305 324.241458 
L 260.66286 324.645269 
L 261.937414 325.222468 
L 263.211969 325.643707 
L 264.486524 325.939811 
L 265.761078 327.573867 
L 267.035633 328.669496 
L 268.310187 328.807576 
L 269.584742 329.225666 
L 272.133851 330.294354 
L 273.408406 331.811669 
L 274.68296 332.3443 
L 275.957515 332.359659 
L 277.232069 333.324159 
L 278.506624 333.996969 
L 279.781179 334.182658 
L 281.055733 335.308835 
L 282.330288 336.165567 
L 283.604842 337.182697 
L 284.879397 337.789428 
L 286.153952 338.253928 
L 289.977615 340.824246 
L 291.25217 340.638338 
L 295.075834 341.35414 
L 296.350388 342.179794 
L 297.624943 342.780215 
L 298.899497 343.239078 
L 300.174052 344.076222 
L 302.723161 346.540014 
L 303.997716 346.912044 
L 305.27227 347.061259 
L 306.546825 347.970302 
L 307.82138 347.903314 
L 309.095934 348.893965 
L 310.370489 348.99008 
L 311.645043 349.250635 
L 314.194153 349.156916 
L 315.468707 349.380745 
L 316.743262 350.02289 
L 318.017816 351.308755 
L 319.292371 351.28127 
L 320.566926 351.671047 
L 321.84148 352.216011 
L 323.116035 353.046302 
L 324.390589 353.229587 
L 325.665144 353.609207 
L 329.488808 355.761148 
L 330.763362 355.966432 
L 332.037917 356.970932 
L 333.312471 357.109397 
L 335.861581 358.871371 
L 337.136135 359.0258 
L 338.41069 359.955858 
L 339.685244 360.631036 
L 340.959799 361.073501 
L 342.234354 361.209516 
L 343.508908 361.926073 
L 344.783463 361.731366 
L 352.43079 366.559668 
L 353.705345 366.68794 
L 354.979899 367.31437 
L 356.254454 367.72309 
L 357.529009 367.982174 
L 358.803563 368.367395 
L 360.078118 369.011086 
L 361.352672 368.652977 
L 362.627227 368.763018 
L 363.901782 369.115174 
L 365.176336 368.992342 
L 366.450891 369.586005 
L 367.725445 369.775164 
L 369 370.19958 
L 371.549109 370.527854 
L 372.823664 371.066519 
L 375.372773 371.731994 
L 377.921882 371.798315 
L 380.470991 372.451495 
L 381.745546 372.953655 
L 383.020101 369.660168 
L 384.294655 370.155735 
L 385.56921 370.414478 
L 388.118319 371.19876 
L 389.392873 371.226829 
L 391.941983 372.333839 
L 393.216537 372.390562 
L 394.491092 371.858917 
L 395.765646 371.61169 
L 397.040201 372.470919 
L 398.314756 372.553448 
L 399.58931 373.236484 
L 400.863865 373.649692 
L 402.138419 374.318858 
L 404.687529 374.137967 
L 405.962083 374.364267 
L 407.236638 374.433866 
L 408.511192 374.836098 
L 409.785747 375.510741 
L 411.060302 376.007584 
L 412.334856 376.059946 
L 413.609411 376.537621 
L 414.883965 376.70628 
L 416.15852 377.034312 
L 417.433074 377.488364 
L 418.707629 378.621144 
L 419.982184 378.402377 
L 421.256738 378.79945 
L 422.531293 380.162917 
L 423.805847 379.999205 
L 425.080402 380.392456 
L 426.354957 380.396983 
L 427.629511 379.999966 
L 430.17862 379.72818 
L 434.002284 380.951885 
L 435.276839 380.742107 
L 436.551393 381.146651 
L 437.825948 382.161067 
L 439.100503 382.585712 
L 440.375057 382.838424 
L 441.649612 383.418339 
L 442.924166 383.32071 
L 444.198721 383.694493 
L 445.473275 383.677639 
L 446.74783 384.205443 
L 449.296939 383.782577 
L 450.571494 383.909199 
L 451.846048 383.665658 
L 453.120603 383.727996 
L 454.395158 384.341209 
L 456.944267 384.90916 
L 458.218821 385.401233 
L 459.493376 384.986879 
L 460.767931 385.211699 
L 462.042485 385.801993 
L 465.866149 386.853659 
L 467.140704 386.552697 
L 468.415258 386.459725 
L 469.689813 386.187781 
L 472.238922 386.505811 
L 473.513476 386.469909 
L 474.788031 386.557799 
L 476.062586 386.48076 
L 477.33714 386.545247 
L 478.611695 386.939621 
L 481.160804 386.743901 
L 482.435359 386.795157 
L 483.709913 386.693613 
L 484.984468 386.945657 
L 487.533577 387.716408 
L 488.808132 388.996535 
L 490.082686 389.289908 
L 491.357241 389.176233 
L 492.631795 389.717056 
L 496.455459 388.772418 
L 497.730014 389.00099 
L 499.004568 389.368295 
L 500.279123 389.514701 
L 501.553677 390.042751 
L 502.828232 390.238804 
L 505.377341 389.84194 
L 506.651896 390.084033 
L 507.92645 389.916992 
L 509.201005 389.356075 
L 511.750114 389.528551 
L 513.024669 389.322889 
L 515.573778 389.1897 
L 516.848333 389.191651 
L 518.122887 388.855749 
L 519.397442 388.986125 
L 520.671996 388.97074 
L 523.221106 389.273301 
L 524.49566 390.019005 
L 525.770215 389.953301 
L 528.319324 391.433619 
L 529.593878 391.834002 
L 530.868433 392.358713 
L 532.142988 392.600681 
L 533.417542 392.990821 
L 534.692097 393.5694 
L 535.966651 393.610757 
L 537.241206 393.211972 
L 538.515761 393.335677 
L 539.790315 393.782419 
L 541.06487 393.713 
L 542.339424 394.148371 
L 543.613979 394.030869 
L 544.888534 394.130317 
L 546.163088 394.107787 
L 547.437643 394.250555 
L 549.986752 394.8168 
L 551.261307 395.515727 
L 552.535861 395.366821 
L 553.810416 395.644746 
L 555.08497 395.391129 
L 558.908634 395.845531 
L 560.183189 396.267867 
L 564.006852 396.263561 
L 565.281407 396.329245 
L 567.830516 396.854736 
L 569.105071 397.532798 
L 570.379625 397.897731 
L 572.928735 397.655187 
L 574.203289 398.020104 
L 575.477844 397.902323 
L 576.752398 398.460352 
L 578.026953 398.806143 
L 579.301508 398.550904 
L 580.576062 398.655873 
L 581.850617 398.603707 
L 583.125171 398.788471 
L 584.399726 399.251928 
L 585.67428 399.158297 
L 586.948835 399.586934 
L 588.22339 399.191283 
L 589.497944 399.033813 
L 590.772499 399.4285 
L 592.047053 399.383594 
L 593.321608 398.999758 
L 595.870717 399.501842 
L 597.145272 399.418367 
L 598.419826 399.176519 
L 600.968936 399.663626 
L 602.24349 399.640196 
L 604.792599 400.121952 
L 606.067154 400.316304 
L 607.341709 400.150224 
L 608.616263 400.110692 
L 609.890818 400.279065 
L 611.165372 400.787541 
L 612.439927 400.55722 
L 613.714481 401.798615 
L 614.989036 401.760135 
L 616.263591 401.966803 
L 618.8127 401.701129 
L 620.087254 402.036073 
L 621.361809 402.547984 
L 622.636364 402.757703 
L 622.636364 402.757703 
" clip-path="url(#p48357a48c4)" style="fill: none; stroke: #ff7f0e; stroke-width: 1.5; stroke-linecap: square"/>
   </g>
   <g id="line2d_20">
    <path d="M 623.910918 448.56 
L 623.910918 60.48 
" clip-path="url(#p48357a48c4)" style="fill: none; stroke: #808080; stroke-width: 1.5; stroke-linecap: square"/>
   </g>
   <g id="patch_3">
    <path d="M 90 448.56 
L 90 60.48 
" style="fill: none; stroke: #000000; stroke-width: 0.8; stroke-linejoin: miter; stroke-linecap: square"/>
   </g>
   <g id="patch_4">
    <path d="M 648 448.56 
L 648 60.48 
" style="fill: none; stroke: #000000; stroke-width: 0.8; stroke-linejoin: miter; stroke-linecap: square"/>
   </g>
   <g id="patch_5">
    <path d="M 90 448.56 
L 648 448.56 
" style="fill: none; stroke: #000000; stroke-width: 0.8; stroke-linejoin: miter; stroke-linecap: square"/>
   </g>
   <g id="patch_6">
    <path d="M 90 60.48 
L 648 60.48 
" style="fill: none; stroke: #000000; stroke-width: 0.8; stroke-linejoin: miter; stroke-linecap: square"/>
   </g>
   <g id="legend_1">
    <g id="patch_7">
     <path d="M 97 443.56 
L 234.0625 443.56 
Q 236.0625 443.56 236.0625 441.56 
L 236.0625 398.525625 
Q 236.0625 396.525625 234.0625 396.525625 
L 97 396.525625 
Q 95 396.525625 95 398.525625 
L 95 441.56 
Q 95 443.56 97 443.56 
z
" style="fill: #ffffff; opacity: 0.8; stroke: #cccccc; stroke-linejoin: miter"/>
    </g>
    <g id="line2d_21">
     <path d="M 99 404.624063 
L 109 404.624063 
L 119 404.624063 
" style="fill: none; stroke: #1f77b4; stroke-width: 1.5; stroke-linecap: square"/>
    </g>
    <g id="text_20">
     <!-- Training loss -->
     <g transform="translate(127 408.124063) scale(0.1 -0.1)">
      <defs>
       <path id="DejaVuSans-54" d="M -19 4666 
L 3928 4666 
L 3928 4134 
L 2272 4134 
L 2272 0 
L 1638 0 
L 1638 4134 
L -19 4134 
L -19 4666 
z
" transform="scale(0.015625)"/>
       <path id="DejaVuSans-61" d="M 2194 1759 
Q 1497 1759 1228 1600 
Q 959 1441 959 1056 
Q 959 750 1161 570 
Q 1363 391 1709 391 
Q 2188 391 2477 730 
Q 2766 1069 2766 1631 
L 2766 1759 
L 2194 1759 
z
M 3341 1997 
L 3341 0 
L 2766 0 
L 2766 531 
Q 2569 213 2275 61 
Q 1981 -91 1556 -91 
Q 1019 -91 701 211 
Q 384 513 384 1019 
Q 384 1609 779 1909 
Q 1175 2209 1959 2209 
L 2766 2209 
L 2766 2266 
Q 2766 2663 2505 2880 
Q 2244 3097 1772 3097 
Q 1472 3097 1187 3025 
Q 903 2953 641 2809 
L 641 3341 
Q 956 3463 1253 3523 
Q 1550 3584 1831 3584 
Q 2591 3584 2966 3190 
Q 3341 2797 3341 1997 
z
" transform="scale(0.015625)"/>
       <path id="DejaVuSans-69" d="M 603 3500 
L 1178 3500 
L 1178 0 
L 603 0 
L 603 3500 
z
M 603 4863 
L 1178 4863 
L 1178 4134 
L 603 4134 
L 603 4863 
z
" transform="scale(0.015625)"/>
       <path id="DejaVuSans-6e" d="M 3513 2113 
L 3513 0 
L 2938 0 
L 2938 2094 
Q 2938 2591 2744 2837 
Q 2550 3084 2163 3084 
Q 1697 3084 1428 2787 
Q 1159 2491 1159 1978 
L 1159 0 
L 581 0 
L 581 3500 
L 1159 3500 
L 1159 2956 
Q 1366 3272 1645 3428 
Q 1925 3584 2291 3584 
Q 2894 3584 3203 3211 
Q 3513 2838 3513 2113 
z
" transform="scale(0.015625)"/>
       <path id="DejaVuSans-67" d="M 2906 1791 
Q 2906 2416 2648 2759 
Q 2391 3103 1925 3103 
Q 1463 3103 1205 2759 
Q 947 2416 947 1791 
Q 947 1169 1205 825 
Q 1463 481 1925 481 
Q 2391 481 2648 825 
Q 2906 1169 2906 1791 
z
M 3481 434 
Q 3481 -459 3084 -895 
Q 2688 -1331 1869 -1331 
Q 1566 -1331 1297 -1286 
Q 1028 -1241 775 -1147 
L 775 -588 
Q 1028 -725 1275 -790 
Q 1522 -856 1778 -856 
Q 2344 -856 2625 -561 
Q 2906 -266 2906 331 
L 2906 616 
Q 2728 306 2450 153 
Q 2172 0 1784 0 
Q 1141 0 747 490 
Q 353 981 353 1791 
Q 353 2603 747 3093 
Q 1141 3584 1784 3584 
Q 2172 3584 2450 3431 
Q 2728 3278 2906 2969 
L 2906 3500 
L 3481 3500 
L 3481 434 
z
" transform="scale(0.015625)"/>
       <path id="DejaVuSans-6c" d="M 603 4863 
L 1178 4863 
L 1178 0 
L 603 0 
L 603 4863 
z
" transform="scale(0.015625)"/>
      </defs>
      <use xlink:href="#DejaVuSans-54"/>
      <use xlink:href="#DejaVuSans-72" x="46.333984"/>
      <use xlink:href="#DejaVuSans-61" x="87.447266"/>
      <use xlink:href="#DejaVuSans-69" x="148.726562"/>
      <use xlink:href="#DejaVuSans-6e" x="176.509766"/>
      <use xlink:href="#DejaVuSans-69" x="239.888672"/>
      <use xlink:href="#DejaVuSans-6e" x="267.671875"/>
      <use xlink:href="#DejaVuSans-67" x="331.050781"/>
      <use xlink:href="#DejaVuSans-20" x="394.527344"/>
      <use xlink:href="#DejaVuSans-6c" x="426.314453"/>
      <use xlink:href="#DejaVuSans-6f" x="454.097656"/>
      <use xlink:href="#DejaVuSans-73" x="515.279297"/>
      <use xlink:href="#DejaVuSans-73" x="567.378906"/>
     </g>
    </g>
    <g id="line2d_22">
     <path d="M 99 419.302188 
L 109 419.302188 
L 119 419.302188 
" style="fill: none; stroke: #ff7f0e; stroke-width: 1.5; stroke-linecap: square"/>
    </g>
    <g id="text_21">
     <!-- Validation loss -->
     <g transform="translate(127 422.802188) scale(0.1 -0.1)">
      <defs>
       <path id="DejaVuSans-56" d="M 1831 0 
L 50 4666 
L 709 4666 
L 2188 738 
L 3669 4666 
L 4325 4666 
L 2547 0 
L 1831 0 
z
" transform="scale(0.015625)"/>
       <path id="DejaVuSans-64" d="M 2906 2969 
L 2906 4863 
L 3481 4863 
L 3481 0 
L 2906 0 
L 2906 525 
Q 2725 213 2448 61 
Q 2172 -91 1784 -91 
Q 1150 -91 751 415 
Q 353 922 353 1747 
Q 353 2572 751 3078 
Q 1150 3584 1784 3584 
Q 2172 3584 2448 3432 
Q 2725 3281 2906 2969 
z
M 947 1747 
Q 947 1113 1208 752 
Q 1469 391 1925 391 
Q 2381 391 2643 752 
Q 2906 1113 2906 1747 
Q 2906 2381 2643 2742 
Q 2381 3103 1925 3103 
Q 1469 3103 1208 2742 
Q 947 2381 947 1747 
z
" transform="scale(0.015625)"/>
      </defs>
      <use xlink:href="#DejaVuSans-56"/>
      <use xlink:href="#DejaVuSans-61" x="60.658203"/>
      <use xlink:href="#DejaVuSans-6c" x="121.9375"/>
      <use xlink:href="#DejaVuSans-69" x="149.720703"/>
      <use xlink:href="#DejaVuSans-64" x="177.503906"/>
      <use xlink:href="#DejaVuSans-61" x="240.980469"/>
      <use xlink:href="#DejaVuSans-74" x="302.259766"/>
      <use xlink:href="#DejaVuSans-69" x="341.46875"/>
      <use xlink:href="#DejaVuSans-6f" x="369.251953"/>
      <use xlink:href="#DejaVuSans-6e" x="430.433594"/>
      <use xlink:href="#DejaVuSans-20" x="493.8125"/>
      <use xlink:href="#DejaVuSans-6c" x="525.599609"/>
      <use xlink:href="#DejaVuSans-6f" x="553.382812"/>
      <use xlink:href="#DejaVuSans-73" x="614.564453"/>
      <use xlink:href="#DejaVuSans-73" x="666.664062"/>
     </g>
    </g>
    <g id="line2d_23">
     <path d="M 99 433.980313 
L 109 433.980313 
L 119 433.980313 
" style="fill: none; stroke: #808080; stroke-width: 1.5; stroke-linecap: square"/>
    </g>
    <g id="text_22">
     <!-- Optimal tree number -->
     <g transform="translate(127 437.480313) scale(0.1 -0.1)">
      <defs>
       <path id="DejaVuSans-4f" d="M 2522 4238 
Q 1834 4238 1429 3725 
Q 1025 3213 1025 2328 
Q 1025 1447 1429 934 
Q 1834 422 2522 422 
Q 3209 422 3611 934 
Q 4013 1447 4013 2328 
Q 4013 3213 3611 3725 
Q 3209 4238 2522 4238 
z
M 2522 4750 
Q 3503 4750 4090 4092 
Q 4678 3434 4678 2328 
Q 4678 1225 4090 567 
Q 3503 -91 2522 -91 
Q 1538 -91 948 565 
Q 359 1222 359 2328 
Q 359 3434 948 4092 
Q 1538 4750 2522 4750 
z
" transform="scale(0.015625)"/>
       <path id="DejaVuSans-70" d="M 1159 525 
L 1159 -1331 
L 581 -1331 
L 581 3500 
L 1159 3500 
L 1159 2969 
Q 1341 3281 1617 3432 
Q 1894 3584 2278 3584 
Q 2916 3584 3314 3078 
Q 3713 2572 3713 1747 
Q 3713 922 3314 415 
Q 2916 -91 2278 -91 
Q 1894 -91 1617 61 
Q 1341 213 1159 525 
z
M 3116 1747 
Q 3116 2381 2855 2742 
Q 2594 3103 2138 3103 
Q 1681 3103 1420 2742 
Q 1159 2381 1159 1747 
Q 1159 1113 1420 752 
Q 1681 391 2138 391 
Q 2594 391 2855 752 
Q 3116 1113 3116 1747 
z
" transform="scale(0.015625)"/>
      </defs>
      <use xlink:href="#DejaVuSans-4f"/>
      <use xlink:href="#DejaVuSans-70" x="78.710938"/>
      <use xlink:href="#DejaVuSans-74" x="142.1875"/>
      <use xlink:href="#DejaVuSans-69" x="181.396484"/>
      <use xlink:href="#DejaVuSans-6d" x="209.179688"/>
      <use xlink:href="#DejaVuSans-61" x="306.591797"/>
      <use xlink:href="#DejaVuSans-6c" x="367.871094"/>
      <use xlink:href="#DejaVuSans-20" x="395.654297"/>
      <use xlink:href="#DejaVuSans-74" x="427.441406"/>
      <use xlink:href="#DejaVuSans-72" x="466.650391"/>
      <use xlink:href="#DejaVuSans-65" x="505.513672"/>
      <use xlink:href="#DejaVuSans-65" x="567.037109"/>
      <use xlink:href="#DejaVuSans-20" x="628.560547"/>
      <use xlink:href="#DejaVuSans-6e" x="660.347656"/>
      <use xlink:href="#DejaVuSans-75" x="723.726562"/>
      <use xlink:href="#DejaVuSans-6d" x="787.105469"/>
      <use xlink:href="#DejaVuSans-62" x="884.517578"/>
      <use xlink:href="#DejaVuSans-65" x="947.994141"/>
      <use xlink:href="#DejaVuSans-72" x="1009.517578"/>
     </g>
    </g>
   </g>
  </g>
 </g>
 <defs>
  <clipPath id="p48357a48c4">
   <rect x="90" y="60.48" width="558" height="388.08"/>
  </clipPath>
 </defs>
</svg>
